<?xml version="1.0" encoding="UTF-8" standalone="no"?>
<!-- Generator: Adobe Illustrator 27.5.0, SVG Export Plug-In . SVG Version: 6.00 Build 0)  -->

<svg
   version="1.1"
   id="Ebene_1"
   x="0px"
   y="0px"
   width="353.79999"
   height="47.299999"
   viewBox="0 0 353.79999 47.299999"
   enable-background="new 0 0 403.9 110"
   xml:space="preserve"
   sodipodi:docname="ccls-rwth.svg"
   inkscape:version="1.4.2 (ebf0e940d0, 2025-05-08)"
   xmlns:inkscape="http://www.inkscape.org/namespaces/inkscape"
   xmlns:sodipodi="http://sodipodi.sourceforge.net/DTD/sodipodi-0.dtd"
   xmlns="http://www.w3.org/2000/svg"
   xmlns:svg="http://www.w3.org/2000/svg"><defs
   id="defs15" /><sodipodi:namedview
   id="namedview15"
   pagecolor="#ffffff"
   bordercolor="#000000"
   borderopacity="0.25"
   inkscape:showpageshadow="2"
   inkscape:pageopacity="0.0"
   inkscape:pagecheckerboard="0"
   inkscape:deskcolor="#d1d1d1"
   inkscape:zoom="4.0765041"
   inkscape:cx="73.101851"
   inkscape:cy="29.682295"
   inkscape:window-width="3440"
   inkscape:window-height="1371"
   inkscape:window-x="0"
   inkscape:window-y="0"
   inkscape:window-maximized="1"
   inkscape:current-layer="Ebene_1" />
<g
   id="g15"
   transform="translate(-25.1,-39.7)">
	<path
   fill="#8fbae4"
   d="m 316.9,86.2 h 4.4 v -9.3 h 2.4 c 1.8,0 2.6,1 2.6,2.8 l 0.1,4.2 c 0,0.9 0.1,1.7 0.6,2.3 h 4.8 V 86 c -0.8,-0.4 -1,-1.6 -1,-4 -0.1,-4.7 -0.5,-6.3 -3.6,-6.7 v -0.1 c 2.5,-0.5 3.7,-2.5 3.7,-5.4 0,-3.8 -2.2,-5.7 -5.9,-5.7 h -8.2 v 22.1 z m 4.4,-18.8 h 2.1 c 2,0 3.1,1 3.1,3.1 0,2.4 -1.2,3.3 -3.3,3.3 h -1.9 z"
   id="path1" />
	<path
   fill="#8fbae4"
   d="m 251.4,64.2 v 15.4 c 0,5.9 3.4,7.1 7,7.1 3.6,0 7,-1.5 7,-7.1 V 64.2 H 261 v 15.4 c 0,2.2 -0.5,3.8 -2.6,3.8 -2.1,0 -2.6,-1.6 -2.6,-3.8 V 64.2 Z"
   id="path2" />
	<polygon
   fill="#8fbae4"
   points="270.6,86.2 270.6,70.8 270.7,70.8 276.1,86.2 281.2,86.2 281.2,64.2 277.1,64.2 277.1,79.2 277,79.2 271.7,64.2 266.5,64.2 266.5,86.2 "
   id="polygon2" />
	<rect
   x="282.29999"
   y="64.199997"
   fill="#8fbae4"
   width="4.4000001"
   height="22"
   id="rect2" />
	<polygon
   fill="#8fbae4"
   points="297.8,86.2 302.9,64.2 298.3,64.2 295,80.5 294.9,80.5 291.8,64.2 287.1,64.2 292.1,86.2 "
   id="polygon3" />
	<polygon
   fill="#8fbae4"
   points="315.9,86.2 315.9,82.6 307.7,82.6 307.7,76.6 315.1,76.6 315.1,73 307.7,73 307.7,67.8 315.6,67.8 315.6,64.2 303.3,64.2 303.3,86.2 "
   id="polygon4" />
	<path
   fill="#8fbae4"
   d="m 331.3,79.3 v 0.9 c 0,4.1 2,6.4 7,6.4 4.8,0 7.7,-2.1 7.7,-6.8 0,-2.7 -0.9,-4.4 -4.2,-5.8 l -3.4,-1.5 c -1.9,-0.8 -2.3,-1.6 -2.3,-3 0,-1.3 0.5,-2.6 2.5,-2.6 1.7,0 2.4,1.2 2.4,3.3 h 4.3 v -0.6 c 0,-4.2 -2.9,-5.9 -6.8,-5.9 -4.2,0 -6.8,2.2 -6.8,6.5 0,3.7 1.8,5.3 5.8,6.7 2.9,1 4,1.8 4,3.8 0,1.9 -1.3,2.7 -2.7,2.7 -2.3,0 -2.9,-1.3 -2.9,-3.4 v -0.6 h -4.6 z"
   id="path4" />
	<rect
   x="346.60001"
   y="64.199997"
   fill="#8fbae4"
   width="4.4000001"
   height="22"
   id="rect4" />
	<polygon
   fill="#8fbae4"
   points="371,72.7 368.1,64.2 351.6,64.2 351.6,67.8 356.4,67.8 356.4,86.2 360.9,86.2 360.9,67.8 364.6,67.8 368.8,77.5 368.8,86.2 373.2,86.2 373.2,77.5 378.9,64.2 374.1,64.2 371,72.7 "
   id="polygon5" />
	<path
   fill="#03559f"
   d="M 212.3,62.1 H 212 204.9 V 59.6 40.2 40 h 7.1 v 0 h 5 c 3.3,0 6.1,2.1 7,4.9 0.9,2.6 0.1,5.4 -1.8,7.4 0.3,0.7 0.5,1.2 0.7,1.9 0.5,1.2 1,2.5 1.6,3.7 l 1.8,4.2 v 0 h -7.4 c 0,0 -0.1,-0.2 -0.1,-0.3 -0.3,-0.7 -0.6,-1.4 -0.9,-2 l -1.8,-4.3 c -0.7,-1.7 -1.4,-3.4 -2.1,-5.1 0.9,0 1.6,0.1 2.4,-0.3 0.6,-0.3 1.5,-1 1.5,-2.4 0,-0.7 -0.2,-1.2 -0.7,-1.8 -0.5,-0.5 -1.1,-0.9 -2,-0.9 0,0 -2.9,0 -2.9,0 z"
   id="path5" />
	<path
   fill="#03559f"
   d="m 289.2,40 v 22.1 h -5.8 -1.6 v -9 h -0.7 -4.4 -0.1 v 9 c -1.3,0 -2.8,0 -4.1,0 h -3.3 v -17 H 264 v 0.5 1.6 7.3 7.6 h -0.1 -7.3 V 53 52.6 45.1 h -5.2 v 8 9 h -7.6 c -1.3,-3.2 -2.7,-6.4 -4,-9.6 -0.1,-0.7 -0.3,-1.3 -0.5,-2 V 62.1 H 232 c -1.5,-3.5 -3,-6.9 -4.5,-10.5 -0.5,-1.2 -0.9,-2.2 -1.5,-3.5 l -0.1,-0.2 -1.2,-2.7 -1.7,-3.9 c -0.1,-0.4 -0.4,-0.8 -0.5,-1.3 h 7.6 c 1.6,3.8 3.1,7.5 4.8,11.3 v 0.1 c -0.1,-0.4 -0.2,-1 -0.3,-1.4 v -6.6 c 0,-1.1 0,-2.3 0,-3.3 h 7.6 c 0.1,0.2 0.1,0.4 0.2,0.6 0.9,2.1 1.7,4.2 2.6,6.2 l 2,4.5 c 0,-0.5 -0.1,-0.9 -0.2,-1.4 V 40 h 0.6 5.2 18.7 5.3 v 1.4 6.6 h 0.4 4.8 v -8 h 3.8 z"
   id="path6" />
	<path
   fill="#8fbae4"
   d="m 310.6,53.8 2.1,-10 h 0.1 l 2.1,10 z m -14.7,0 2.1,-10 h 0.1 l 2.1,10 z M 315.5,40 H 310 L 305.4,57.5 300.8,40 h -5.5 l -5.9,22.1 h 4.7 l 1,-4.7 h 5.9 l 1,4.7 h 6.8 l 1,-4.7 h 5.9 l 1,4.7 h 4.7 z"
   id="path7" />
	<path
   fill="#8fbae4"
   d="m 334.7,47.6 c 0,-3.2 -0.5,-7.9 -6.8,-7.9 -6.7,0 -7.5,4.8 -7.5,11.5 0,6.7 0.8,11.5 7.5,11.5 5.8,0 7,-4.1 7,-8.9 h -4.4 c 0,4.8 -1.2,5.6 -2.8,5.6 -1.9,0 -2.8,-1.2 -2.8,-7.9 0,-6.2 0.5,-8.5 2.8,-8.5 2,0 2.7,1.4 2.7,4.6 z"
   id="path8" />
	<polygon
   fill="#8fbae4"
   points="340.2,52.3 345.4,52.3 345.4,62.1 349.9,62.1 349.9,40 345.4,40 345.4,48.5 340.2,48.5 340.2,40 335.8,40 335.8,62.1 340.2,62.1 "
   id="polygon8" />
	<polygon
   fill="#8fbae4"
   points="363.6,62.1 363.6,58.5 355.3,58.5 355.3,52.5 362.8,52.5 362.8,48.9 355.3,48.9 355.3,43.7 363.2,43.7 363.2,40 350.9,40 350.9,62.1 "
   id="polygon9" />
	<polygon
   fill="#8fbae4"
   points="368.3,62.1 368.3,46.6 368.4,46.6 373.8,62.1 378.9,62.1 378.9,40 374.8,40 374.8,55.2 374.8,55.2 369.4,40 364.2,40 364.2,62.1 "
   id="polygon10" />
	<rect
   x="189.89999"
   y="40"
   fill="#03559f"
   width="1"
   height="46.400002"
   id="rect10" />
	<path
   fill="#03559f"
   d="m 166.7,84.6 v 0.2 c 0,0.3 0,0.5 0.1,0.7 0.1,0.2 0.2,0.4 0.3,0.6 0.2,0.2 0.4,0.3 0.6,0.4 0.3,0.1 0.6,0.1 1,0.1 0.3,0 0.6,0 0.8,-0.1 0.3,-0.1 0.5,-0.2 0.6,-0.3 0.2,-0.1 0.3,-0.3 0.4,-0.5 0.1,-0.2 0.2,-0.5 0.2,-0.8 0,-0.4 -0.1,-0.7 -0.3,-1 -0.2,-0.2 -0.5,-0.4 -0.9,-0.6 L 168.7,83 c -0.2,-0.1 -0.4,-0.2 -0.5,-0.3 -0.1,-0.1 -0.1,-0.2 -0.1,-0.4 0,-0.2 0.1,-0.3 0.2,-0.4 0.1,-0.1 0.3,-0.1 0.5,-0.1 0.2,0 0.4,0.1 0.5,0.2 0.1,0.1 0.1,0.3 0.1,0.6 h 1.3 v -0.2 c 0,-0.5 -0.2,-0.9 -0.5,-1.2 -0.3,-0.3 -0.8,-0.4 -1.4,-0.4 -0.4,0 -0.7,0 -0.9,0.1 -0.3,0.1 -0.5,0.2 -0.6,0.4 -0.2,0.2 -0.3,0.3 -0.4,0.5 -0.1,0.2 -0.1,0.4 -0.1,0.6 0,0.4 0.1,0.7 0.3,1 0.2,0.2 0.5,0.4 0.9,0.6 l 1,0.4 c 0.1,0.1 0.3,0.1 0.4,0.2 0.1,0.1 0.2,0.2 0.2,0.4 0,0.2 -0.1,0.4 -0.2,0.5 -0.1,0.1 -0.3,0.2 -0.5,0.2 -0.2,0 -0.4,-0.1 -0.5,-0.2 -0.1,-0.1 -0.2,-0.3 -0.2,-0.6 v -0.2 h -1.5 z M 163.3,83 v -0.2 c 0,-0.1 0,-0.3 0,-0.4 0,-0.1 0.1,-0.2 0.1,-0.4 0.1,-0.1 0.1,-0.2 0.2,-0.3 0.1,-0.1 0.2,-0.1 0.4,-0.1 0.1,0 0.3,0 0.4,0.1 0.1,0.1 0.2,0.1 0.2,0.3 0.1,0.1 0.1,0.2 0.1,0.4 0,0.2 0,0.3 0,0.6 z m 2.8,0.8 v -0.3 c 0,-0.4 0,-0.8 -0.1,-1.2 -0.1,-0.3 -0.2,-0.6 -0.3,-0.9 -0.2,-0.2 -0.4,-0.4 -0.6,-0.6 -0.3,-0.1 -0.6,-0.2 -1,-0.2 -0.5,0 -0.9,0.1 -1.1,0.2 -0.3,0.2 -0.5,0.4 -0.7,0.6 -0.2,0.3 -0.3,0.6 -0.3,0.9 -0.1,0.3 -0.1,0.7 -0.1,1.1 0,0.3 0,0.7 0,1 0,0.4 0.1,0.7 0.3,1 0.1,0.3 0.3,0.5 0.6,0.7 0.3,0.2 0.7,0.3 1.2,0.3 0.7,0 1.2,-0.2 1.5,-0.5 0.3,-0.3 0.5,-0.8 0.5,-1.5 h -1.3 c 0,0.3 -0.1,0.6 -0.2,0.8 -0.1,0.2 -0.3,0.3 -0.5,0.3 -0.1,0 -0.2,0 -0.3,-0.1 -0.1,-0.1 -0.2,-0.2 -0.2,-0.3 -0.1,-0.1 -0.1,-0.3 -0.1,-0.4 0,-0.2 0,-0.3 0,-0.5 v -0.4 z m -4.8,-0.9 c 0,-0.7 -0.2,-1.2 -0.5,-1.6 -0.3,-0.4 -0.8,-0.6 -1.5,-0.6 -0.3,0 -0.6,0 -0.9,0.1 -0.3,0.1 -0.5,0.2 -0.7,0.5 -0.2,0.2 -0.4,0.5 -0.5,0.9 -0.1,0.4 -0.2,0.8 -0.2,1.4 0,0.6 0,1 0.1,1.4 0.1,0.4 0.2,0.7 0.4,0.9 0.2,0.2 0.4,0.4 0.7,0.5 0.3,0.1 0.6,0.1 0.9,0.1 0.8,0 1.3,-0.2 1.6,-0.6 0.3,-0.4 0.5,-0.9 0.5,-1.7 h -1.4 c 0,0.4 -0.1,0.8 -0.2,1 -0.1,0.2 -0.3,0.3 -0.5,0.3 -0.2,0 -0.3,0 -0.4,-0.1 -0.1,-0.1 -0.2,-0.2 -0.2,-0.3 -0.1,-0.2 -0.1,-0.4 -0.1,-0.6 0,-0.2 0,-0.5 0,-0.9 0,-0.3 0,-0.6 0,-0.8 0,-0.2 0.1,-0.4 0.1,-0.6 0.1,-0.2 0.1,-0.3 0.2,-0.3 0.1,-0.1 0.2,-0.1 0.4,-0.1 0.1,0 0.2,0 0.3,0.1 0.1,0.1 0.1,0.2 0.2,0.3 0,0.1 0.1,0.2 0.1,0.4 0,0.1 0,0.3 0,0.4 h 1.6 z m -9.2,3.5 h 1.4 v -3.7 c 0,-0.6 0.2,-0.9 0.7,-0.9 0.2,0 0.4,0.1 0.5,0.2 0.1,0.1 0.1,0.3 0.1,0.6 v 3.8 h 1.4 v -4.1 c 0,-0.6 -0.1,-1 -0.4,-1.2 -0.2,-0.2 -0.6,-0.4 -1,-0.4 -0.3,0 -0.6,0.1 -0.8,0.2 -0.2,0.1 -0.4,0.3 -0.6,0.6 v 0 -0.6 H 152 v 5.5 z M 148.5,83 v -0.2 c 0,-0.1 0,-0.3 0,-0.4 0,-0.1 0.1,-0.2 0.1,-0.4 0.1,-0.1 0.1,-0.2 0.2,-0.3 0.1,-0.1 0.2,-0.1 0.4,-0.1 0.1,0 0.3,0 0.4,0.1 0.1,0.1 0.2,0.1 0.2,0.3 0.1,0.1 0.1,0.2 0.1,0.4 0,0.2 0,0.3 0,0.6 z m 2.8,0.8 v -0.3 c 0,-0.4 0,-0.8 -0.1,-1.2 -0.1,-0.3 -0.2,-0.6 -0.3,-0.9 -0.1,-0.2 -0.4,-0.4 -0.6,-0.6 -0.3,-0.1 -0.6,-0.2 -1,-0.2 -0.5,0 -0.9,0.1 -1.1,0.2 -0.3,0.2 -0.5,0.4 -0.7,0.6 -0.2,0.3 -0.3,0.6 -0.3,0.9 -0.1,0.3 -0.1,0.7 -0.1,1.1 0,0.3 0,0.7 0,1 0,0.4 0.1,0.7 0.3,1 0.1,0.3 0.3,0.5 0.6,0.7 0.3,0.2 0.7,0.3 1.2,0.3 0.7,0 1.2,-0.2 1.5,-0.5 0.3,-0.3 0.5,-0.8 0.5,-1.5 h -1.3 c 0,0.3 -0.1,0.6 -0.2,0.8 -0.1,0.2 -0.3,0.3 -0.5,0.3 -0.1,0 -0.2,0 -0.3,-0.1 -0.1,-0.1 -0.2,-0.2 -0.2,-0.3 -0.1,-0.1 -0.1,-0.3 -0.1,-0.4 0,-0.2 0,-0.3 0,-0.5 v -0.4 z m -6.5,2.6 h 1.4 v -5.5 h -1.4 z m 0,-6.2 h 1.4 V 79 h -1.4 z m -0.9,2.7 c 0,-0.7 -0.2,-1.2 -0.5,-1.6 -0.3,-0.4 -0.8,-0.6 -1.5,-0.6 -0.3,0 -0.6,0 -0.9,0.1 -0.3,0.1 -0.5,0.2 -0.7,0.5 -0.2,0.2 -0.4,0.5 -0.5,0.9 -0.1,0.4 -0.2,0.8 -0.2,1.4 0,0.6 0,1 0.1,1.4 0.1,0.4 0.2,0.7 0.4,0.9 0.2,0.2 0.4,0.4 0.7,0.5 0.3,0.1 0.6,0.1 0.9,0.1 0.8,0 1.3,-0.2 1.6,-0.6 0.3,-0.4 0.5,-0.9 0.5,-1.7 h -1.4 c 0,0.4 -0.1,0.8 -0.2,1 -0.1,0.2 -0.3,0.3 -0.5,0.3 -0.2,0 -0.3,0 -0.4,-0.1 -0.1,-0.1 -0.2,-0.2 -0.2,-0.3 -0.1,-0.2 -0.1,-0.4 -0.1,-0.6 0,-0.2 0,-0.5 0,-0.9 0,-0.3 0,-0.6 0,-0.8 0,-0.2 0.1,-0.4 0.1,-0.6 0.1,-0.2 0.1,-0.3 0.2,-0.3 0.1,-0.1 0.2,-0.1 0.4,-0.1 0.1,0 0.2,0 0.3,0.1 0.1,0.1 0.1,0.2 0.2,0.3 0,0.1 0.1,0.2 0.1,0.4 0,0.1 0,0.3 0,0.4 h 1.6 z m -9.7,1.2 v 0.3 c 0,0.7 0.2,1.2 0.5,1.6 0.4,0.4 1,0.6 1.8,0.6 0.8,0 1.4,-0.2 1.9,-0.5 0.4,-0.4 0.7,-0.9 0.7,-1.7 0,-0.2 0,-0.4 -0.1,-0.6 0,-0.2 -0.1,-0.4 -0.2,-0.5 -0.1,-0.2 -0.2,-0.3 -0.4,-0.4 -0.2,-0.1 -0.4,-0.3 -0.7,-0.4 L 136.6,82 c -0.3,-0.1 -0.5,-0.3 -0.6,-0.4 -0.1,-0.2 -0.1,-0.3 -0.1,-0.6 0,-0.1 0,-0.2 0,-0.3 0,-0.1 0.1,-0.2 0.1,-0.3 0,-0.1 0.2,-0.1 0.3,-0.2 0.1,0 0.2,-0.1 0.4,-0.1 0.3,0 0.5,0.1 0.6,0.3 0.1,0.2 0.2,0.5 0.2,0.8 h 1.4 V 81 c 0,-0.3 -0.1,-0.6 -0.2,-0.9 -0.1,-0.2 -0.3,-0.5 -0.5,-0.6 -0.2,-0.2 -0.4,-0.3 -0.7,-0.3 -0.3,-0.1 -0.6,-0.1 -0.9,-0.1 -0.7,0 -1.3,0.2 -1.7,0.5 -0.4,0.4 -0.6,0.9 -0.6,1.6 0,0.3 0,0.6 0.1,0.8 0.1,0.2 0.2,0.4 0.4,0.6 0.2,0.2 0.4,0.3 0.6,0.5 0.2,0.1 0.5,0.2 0.8,0.4 0.2,0.1 0.5,0.2 0.6,0.2 0.2,0.1 0.3,0.2 0.4,0.3 0.1,0.1 0.2,0.2 0.2,0.3 0,0.1 0.1,0.3 0.1,0.4 0,0.3 -0.1,0.5 -0.3,0.7 -0.2,0.1 -0.4,0.2 -0.6,0.2 -0.2,0 -0.4,0 -0.5,-0.1 -0.1,-0.1 -0.2,-0.1 -0.3,-0.2 -0.1,-0.1 -0.1,-0.2 -0.2,-0.4 0,-0.1 0,-0.3 0,-0.5 v -0.2 h -1.4 z M 128.5,83 v -0.2 c 0,-0.1 0,-0.3 0,-0.4 0,-0.1 0.1,-0.2 0.1,-0.4 0.1,-0.1 0.1,-0.2 0.2,-0.3 0.1,-0.1 0.2,-0.1 0.4,-0.1 0.1,0 0.3,0 0.4,0.1 0.1,0.1 0.2,0.1 0.2,0.3 0.1,0.1 0.1,0.2 0.1,0.4 0,0.2 0,0.3 0,0.6 z m 2.8,0.8 v -0.3 c 0,-0.4 0,-0.8 -0.1,-1.2 -0.1,-0.3 -0.2,-0.6 -0.3,-0.9 -0.2,-0.2 -0.4,-0.4 -0.6,-0.6 -0.3,-0.1 -0.6,-0.2 -1,-0.2 -0.5,0 -0.9,0.1 -1.1,0.2 -0.3,0.2 -0.5,0.4 -0.7,0.6 -0.2,0.3 -0.3,0.6 -0.3,0.9 -0.1,0.3 -0.1,0.7 -0.1,1.1 0,0.3 0,0.7 0,1 0,0.4 0.1,0.7 0.3,1 0.1,0.3 0.3,0.5 0.6,0.7 0.3,0.2 0.7,0.3 1.2,0.3 0.7,0 1.2,-0.2 1.5,-0.5 0.3,-0.3 0.5,-0.8 0.5,-1.5 h -1.3 c 0,0.3 -0.1,0.6 -0.2,0.8 -0.1,0.2 -0.3,0.3 -0.5,0.3 -0.1,0 -0.2,0 -0.3,-0.1 -0.1,-0.1 -0.2,-0.2 -0.2,-0.3 -0.1,-0.1 -0.1,-0.3 -0.1,-0.4 0,-0.2 0,-0.3 0,-0.5 v -0.4 z m -6.8,2.6 h 1.4 v -4.5 h 0.8 v -1 h -0.8 v -0.5 c 0,-0.2 0,-0.3 0.1,-0.3 0.1,-0.1 0.2,-0.1 0.4,-0.1 h 0.1 c 0.1,0 0.1,0 0.1,0 v -1 c -0.3,0 -0.5,0 -0.8,0 -0.2,0 -0.4,0 -0.6,0.1 -0.2,0 -0.3,0.1 -0.5,0.2 -0.1,0.1 -0.2,0.2 -0.3,0.4 -0.1,0.2 -0.1,0.4 -0.1,0.6 v 0.6 h -0.7 v 1 h 0.7 v 4.5 z m -2.8,0 h 1.4 v -5.5 h -1.4 z m 0,-6.2 h 1.4 V 79 h -1.4 z m -0.8,6.2 v -1.2 h -2.6 v -6.1 h -1.5 v 7.3 z"
   id="path10" />
	<path
   fill="#03559f"
   d="m 174.5,74.8 h 1.4 v -7.3 h -1.4 z m -2.4,-1.7 c 0,0.2 0,0.3 -0.1,0.4 -0.1,0.1 -0.1,0.2 -0.2,0.3 -0.1,0.1 -0.2,0.1 -0.3,0.1 -0.1,0 -0.2,0 -0.3,0 -0.2,0 -0.3,-0.1 -0.4,-0.2 -0.1,-0.2 -0.1,-0.3 -0.1,-0.5 0,-0.2 0.1,-0.4 0.2,-0.6 0.1,-0.2 0.3,-0.2 0.6,-0.3 0.1,0 0.2,-0.1 0.3,-0.1 0.1,0 0.2,-0.1 0.3,-0.2 z M 170.8,71 v -0.2 c 0,-0.2 0.1,-0.4 0.2,-0.5 0.1,-0.1 0.3,-0.2 0.5,-0.2 0.2,0 0.4,0.1 0.5,0.2 0.1,0.1 0.1,0.3 0.1,0.5 0,0.2 0,0.3 -0.1,0.4 -0.1,0.1 -0.2,0.2 -0.4,0.2 l -0.8,0.2 c -0.2,0.1 -0.5,0.1 -0.6,0.2 -0.2,0.1 -0.3,0.2 -0.4,0.3 -0.1,0.1 -0.2,0.3 -0.3,0.5 -0.1,0.2 -0.1,0.4 -0.1,0.7 0,0.2 0,0.4 0.1,0.6 0,0.2 0.1,0.4 0.2,0.5 0.1,0.1 0.2,0.3 0.4,0.4 0.2,0.1 0.4,0.1 0.6,0.1 0.3,0 0.6,0 0.8,-0.1 0.2,-0.1 0.4,-0.3 0.6,-0.6 v 0 c 0,0.1 0,0.2 0.1,0.3 0,0.1 0.1,0.2 0.1,0.3 h 1.4 c -0.1,-0.2 -0.1,-0.3 -0.1,-0.5 0,-0.1 0,-0.3 0,-0.6 v -2.9 c 0,-0.2 0,-0.5 -0.1,-0.7 -0.1,-0.2 -0.1,-0.4 -0.3,-0.5 -0.1,-0.1 -0.3,-0.3 -0.6,-0.3 -0.3,-0.1 -0.6,-0.1 -1,-0.1 -0.3,0 -0.5,0 -0.8,0.1 -0.3,0.1 -0.4,0.2 -0.6,0.3 -0.2,0.1 -0.3,0.3 -0.4,0.5 -0.1,0.2 -0.2,0.5 -0.2,0.8 V 71 Z m -6.4,3.8 h 1.4 v -3.7 c 0,-0.6 0.2,-0.9 0.7,-0.9 0.2,0 0.4,0.1 0.5,0.2 0.1,0.1 0.1,0.3 0.1,0.6 v 3.8 h 1.4 v -4.1 c 0,-0.6 -0.1,-1 -0.4,-1.2 -0.2,-0.2 -0.6,-0.4 -1,-0.4 -0.3,0 -0.6,0.1 -0.8,0.2 -0.2,0.1 -0.4,0.3 -0.6,0.6 v 0 -0.6 h -1.3 z m -3.7,-3.6 c 0,-0.2 0,-0.4 0.1,-0.6 0.1,-0.2 0.1,-0.3 0.2,-0.4 0.1,-0.1 0.2,-0.1 0.4,-0.1 0.3,0 0.5,0.2 0.6,0.5 0.1,0.3 0.2,0.8 0.2,1.5 0,0.7 -0.1,1.2 -0.2,1.5 -0.1,0.3 -0.3,0.4 -0.6,0.4 -0.2,0 -0.3,0 -0.4,-0.1 -0.1,-0.1 -0.2,-0.2 -0.2,-0.4 0,-0.2 -0.1,-0.4 -0.1,-0.6 0,-0.2 0,-0.5 0,-0.8 0,-0.3 0,-0.6 0,-0.9 m -1.4,2.1 c 0.1,0.4 0.2,0.7 0.3,0.9 0.2,0.2 0.4,0.4 0.7,0.5 0.3,0.1 0.6,0.2 1.1,0.2 0.4,0 0.7,-0.1 1,-0.2 0.3,-0.1 0.5,-0.3 0.7,-0.6 0.2,-0.2 0.3,-0.5 0.4,-0.9 0.1,-0.4 0.1,-0.8 0.1,-1.2 0,-0.5 0,-0.9 -0.1,-1.3 -0.1,-0.4 -0.2,-0.7 -0.3,-0.9 -0.2,-0.2 -0.4,-0.4 -0.7,-0.5 -0.3,-0.1 -0.6,-0.2 -1.1,-0.2 -0.4,0 -0.7,0.1 -1,0.2 -0.3,0.1 -0.5,0.3 -0.7,0.6 -0.2,0.2 -0.3,0.5 -0.4,0.9 -0.1,0.4 -0.1,0.8 -0.1,1.2 0,0.5 0.1,0.9 0.1,1.3 m -2.3,1.5 h 1.4 V 69.3 H 157 Z m 0,-6.2 h 1.4 V 67.4 H 157 Z m -2.9,0.7 h -0.7 v 1 h 0.7 v 3.2 c 0,0.3 0,0.5 0.1,0.7 0,0.2 0.1,0.3 0.2,0.4 0.1,0.1 0.2,0.2 0.4,0.2 0.2,0 0.4,0.1 0.7,0.1 0.2,0 0.3,0 0.5,0 0.1,0 0.3,0 0.5,0 v -1 c 0,0 -0.1,0 -0.2,0 -0.1,0 -0.1,0 -0.2,0 -0.2,0 -0.3,0 -0.4,-0.1 -0.1,-0.1 -0.1,-0.2 -0.1,-0.5 v -3 h 0.8 v -1 h -0.8 v -1.6 h -1.4 v 1.6 z m -2.7,3.8 c 0,0.2 0,0.3 -0.1,0.4 -0.1,0.1 -0.1,0.2 -0.2,0.3 -0.1,0.1 -0.2,0.1 -0.3,0.1 -0.1,0 -0.2,0 -0.3,0 -0.2,0 -0.3,-0.1 -0.4,-0.2 -0.1,-0.2 -0.1,-0.3 -0.1,-0.5 0,-0.2 0.1,-0.4 0.2,-0.6 0.1,-0.2 0.3,-0.2 0.6,-0.3 0.1,0 0.2,-0.1 0.3,-0.1 0.1,0 0.2,-0.1 0.3,-0.2 z M 150,71 v -0.2 c 0,-0.2 0.1,-0.4 0.2,-0.5 0.1,-0.1 0.3,-0.2 0.5,-0.2 0.2,0 0.4,0.1 0.5,0.2 0.1,0.1 0.1,0.3 0.1,0.5 0,0.2 0,0.3 -0.1,0.4 -0.1,0.1 -0.2,0.2 -0.4,0.2 l -0.8,0.2 c -0.2,0.1 -0.5,0.1 -0.6,0.2 -0.2,0.1 -0.3,0.2 -0.4,0.3 -0.1,0.1 -0.2,0.3 -0.3,0.5 -0.1,0.2 -0.1,0.4 -0.1,0.7 0,0.2 0,0.4 0.1,0.6 0,0.2 0.1,0.4 0.2,0.5 0.1,0.1 0.2,0.3 0.4,0.4 0.2,0.1 0.4,0.1 0.6,0.1 0.3,0 0.6,0 0.8,-0.1 0.2,-0.1 0.4,-0.3 0.6,-0.6 v 0 c 0,0.1 0,0.2 0.1,0.3 0,0.1 0.1,0.2 0.1,0.3 h 1.4 c -0.1,-0.2 -0.1,-0.3 -0.1,-0.5 0,-0.1 0,-0.3 0,-0.6 v -2.9 c 0,-0.2 0,-0.5 -0.1,-0.7 -0.1,-0.2 -0.1,-0.4 -0.3,-0.5 -0.1,-0.1 -0.3,-0.3 -0.6,-0.3 -0.3,-0.1 -0.6,-0.1 -1,-0.1 -0.3,0 -0.5,0 -0.8,0.1 -0.3,0.1 -0.4,0.2 -0.6,0.3 -0.2,0.1 -0.3,0.3 -0.4,0.5 -0.1,0.2 -0.2,0.5 -0.2,0.8 V 71 Z m -4.1,-1.7 h -0.7 v 1 h 0.7 v 3.2 c 0,0.3 0,0.5 0.1,0.7 0,0.2 0.1,0.3 0.2,0.4 0.1,0.1 0.2,0.2 0.4,0.2 0.2,0 0.4,0.1 0.7,0.1 0.2,0 0.3,0 0.5,0 0.1,0 0.3,0 0.5,0 v -1 c 0,0 -0.1,0 -0.2,0 -0.1,0 -0.1,0 -0.2,0 -0.2,0 -0.3,0 -0.4,-0.1 -0.1,-0.1 -0.1,-0.2 -0.1,-0.5 v -3 h 0.8 v -1 h -0.8 V 67.7 H 146 v 1.6 z m -2.7,5.5 h 1.3 v -5.5 h -1.4 V 73 c 0,0.6 -0.2,0.9 -0.7,0.9 -0.2,0 -0.4,-0.1 -0.5,-0.2 -0.1,-0.1 -0.1,-0.3 -0.1,-0.6 v -3.8 h -1.4 v 4.1 c 0,0.6 0.1,1 0.4,1.2 0.2,0.2 0.6,0.4 1,0.4 0.3,0 0.6,-0.1 0.8,-0.2 0.2,-0.1 0.4,-0.3 0.6,-0.6 v 0 z m -6.5,-4.1 c 0.1,-0.3 0.3,-0.5 0.6,-0.5 0.3,0 0.5,0.2 0.6,0.5 0.1,0.3 0.1,0.8 0.1,1.4 0,0.6 0,1.1 -0.1,1.4 -0.1,0.3 -0.3,0.5 -0.6,0.5 -0.3,0 -0.5,-0.2 -0.6,-0.5 -0.1,-0.3 -0.1,-0.8 -0.1,-1.4 0,-0.7 0,-1.1 0.1,-1.4 m -1.5,5.9 h 1.4 v -2.3 0 c 0.1,0.2 0.3,0.4 0.5,0.5 0.2,0.1 0.4,0.2 0.7,0.2 0.6,0 1,-0.2 1.3,-0.7 0.3,-0.5 0.4,-1.2 0.4,-2.2 0,-1 -0.1,-1.8 -0.4,-2.2 -0.3,-0.5 -0.7,-0.7 -1.3,-0.7 -0.3,0 -0.5,0.1 -0.7,0.2 -0.2,0.1 -0.4,0.3 -0.5,0.6 v 0 -0.6 h -1.4 z m -7.8,-1.8 h 1.4 v -3.6 c 0,-0.3 0.1,-0.6 0.2,-0.7 0.1,-0.2 0.3,-0.2 0.5,-0.2 0.2,0 0.3,0.1 0.4,0.2 0.1,0.1 0.1,0.3 0.1,0.5 v 3.8 h 1.4 v -3.6 c 0,-0.3 0.1,-0.6 0.2,-0.7 0.1,-0.2 0.3,-0.2 0.5,-0.2 0.2,0 0.3,0.1 0.4,0.2 0.1,0.1 0.1,0.3 0.1,0.5 v 3.8 h 1.4 v -4 c 0,-0.5 -0.1,-0.9 -0.3,-1.2 -0.2,-0.3 -0.6,-0.4 -1,-0.4 -0.3,0 -0.6,0.1 -0.9,0.2 -0.2,0.1 -0.4,0.4 -0.5,0.7 v 0 c -0.1,-0.3 -0.2,-0.5 -0.4,-0.7 -0.2,-0.2 -0.5,-0.2 -0.8,-0.2 -0.3,0 -0.6,0.1 -0.8,0.2 -0.2,0.1 -0.4,0.3 -0.6,0.5 v 0 -0.6 h -1.4 v 5.5 z m -3.8,-3.6 c 0,-0.2 0,-0.4 0.1,-0.6 0.1,-0.2 0.1,-0.3 0.2,-0.4 0.1,-0.1 0.2,-0.1 0.4,-0.1 0.3,0 0.5,0.2 0.6,0.5 0.1,0.3 0.2,0.8 0.2,1.5 0,0.7 -0.1,1.2 -0.2,1.5 -0.1,0.3 -0.3,0.4 -0.6,0.4 -0.2,0 -0.3,0 -0.4,-0.1 -0.1,-0.1 -0.2,-0.2 -0.2,-0.4 -0.1,-0.2 -0.1,-0.4 -0.1,-0.6 0,-0.2 0,-0.5 0,-0.8 0,-0.3 0,-0.6 0,-0.9 m -1.3,2.1 c 0.1,0.4 0.2,0.7 0.3,0.9 0.2,0.2 0.4,0.4 0.7,0.5 0.3,0.1 0.6,0.2 1.1,0.2 0.4,0 0.7,-0.1 1,-0.2 0.3,-0.1 0.5,-0.3 0.7,-0.6 0.2,-0.2 0.3,-0.5 0.4,-0.9 0.1,-0.4 0.1,-0.8 0.1,-1.2 0,-0.5 0,-0.9 -0.1,-1.3 -0.1,-0.4 -0.2,-0.7 -0.3,-0.9 -0.2,-0.2 -0.4,-0.4 -0.7,-0.5 -0.3,-0.1 -0.6,-0.2 -1.1,-0.2 -0.4,0 -0.7,0.1 -1,0.2 -0.3,0.1 -0.5,0.3 -0.7,0.6 -0.2,0.2 -0.3,0.5 -0.4,0.9 -0.1,0.4 -0.1,0.8 -0.1,1.2 0,0.5 0,0.9 0.1,1.3 m -0.9,-3.4 c 0,-0.3 0,-0.5 -0.1,-0.9 0,-0.3 -0.1,-0.6 -0.3,-0.8 -0.2,-0.3 -0.4,-0.5 -0.7,-0.7 -0.3,-0.2 -0.7,-0.3 -1.2,-0.3 -0.6,0 -1,0.1 -1.3,0.3 -0.3,0.2 -0.6,0.4 -0.8,0.8 -0.2,0.3 -0.3,0.7 -0.3,1.2 -0.1,0.5 -0.1,1 -0.1,1.5 0,0.6 0,1.1 0.1,1.5 0.1,0.5 0.2,0.9 0.3,1.2 0.2,0.3 0.4,0.6 0.8,0.8 0.3,0.2 0.8,0.3 1.3,0.3 0.5,0 0.9,-0.1 1.2,-0.2 0.3,-0.2 0.5,-0.4 0.7,-0.6 0.2,-0.3 0.3,-0.6 0.3,-0.9 0.1,-0.4 0.1,-0.7 0.1,-1.1 H 120 c 0,0.4 0,0.7 -0.1,1 0,0.2 -0.1,0.4 -0.2,0.6 -0.1,0.1 -0.2,0.2 -0.3,0.3 -0.1,0 -0.2,0.1 -0.4,0.1 -0.2,0 -0.3,0 -0.4,-0.1 -0.1,-0.1 -0.2,-0.2 -0.3,-0.4 -0.1,-0.2 -0.1,-0.5 -0.2,-0.8 -0.1,-0.3 -0.1,-0.8 -0.1,-1.3 0,-0.5 0,-1 0,-1.3 0,-0.4 0.1,-0.6 0.1,-0.9 0.1,-0.2 0.2,-0.4 0.3,-0.5 0.1,-0.1 0.3,-0.1 0.5,-0.1 0.3,0 0.6,0.1 0.7,0.4 0.1,0.2 0.2,0.6 0.2,1.2 h 1.6 z"
   id="path11" />
	<path
   fill="#03559f"
   d="m 154.4,63.2 h 1.4 v -3.3 c 0,-0.2 0,-0.3 0.1,-0.5 0.1,-0.1 0.1,-0.2 0.2,-0.3 0.1,-0.1 0.2,-0.1 0.3,-0.2 0.1,0 0.2,-0.1 0.4,-0.1 0.1,0 0.1,0 0.2,0 0.1,0 0.1,0 0.2,0 v -1.4 c 0,0 -0.1,0 -0.1,0 0,0 -0.1,0 -0.1,0 -0.3,0 -0.5,0.1 -0.7,0.2 -0.2,0.2 -0.4,0.4 -0.5,0.6 v 0 -0.7 h -1.4 z m -3.8,-3.6 c 0,-0.2 0,-0.4 0.1,-0.6 0.1,-0.2 0.1,-0.3 0.2,-0.4 0.1,-0.1 0.2,-0.1 0.4,-0.1 0.3,0 0.5,0.2 0.6,0.5 0.1,0.3 0.2,0.8 0.2,1.5 0,0.7 -0.1,1.2 -0.2,1.5 -0.1,0.3 -0.3,0.4 -0.6,0.4 -0.2,0 -0.3,0 -0.4,-0.1 -0.1,-0.1 -0.2,-0.2 -0.2,-0.4 -0.1,-0.2 -0.1,-0.4 -0.1,-0.6 0,-0.2 0,-0.5 0,-0.8 0,-0.3 0,-0.6 0,-0.9 m -1.3,2.1 c 0.1,0.4 0.2,0.7 0.3,0.9 0.2,0.2 0.4,0.4 0.7,0.5 0.3,0.1 0.6,0.2 1.1,0.2 0.4,0 0.7,-0.1 1,-0.2 0.3,-0.1 0.5,-0.3 0.7,-0.6 0.2,-0.2 0.3,-0.5 0.4,-0.9 0.1,-0.4 0.1,-0.8 0.1,-1.2 0,-0.5 0,-0.9 -0.1,-1.3 -0.1,-0.4 -0.2,-0.7 -0.3,-0.9 -0.2,-0.2 -0.4,-0.4 -0.7,-0.5 -0.3,-0.1 -0.6,-0.2 -1.1,-0.2 -0.4,0 -0.7,0.1 -1,0.2 -0.3,0.1 -0.5,0.3 -0.7,0.6 -0.2,0.2 -0.3,0.5 -0.4,0.9 -0.1,0.4 -0.1,0.8 -0.1,1.2 0,0.5 0,0.9 0.1,1.3 m -2.7,1.5 h 1.4 v -4.5 h 0.8 v -1 H 148 v -0.5 c 0,-0.2 0,-0.3 0.1,-0.3 0.1,-0.1 0.2,-0.1 0.4,-0.1 h 0.1 c 0.1,0 0.1,0 0.1,0 v -1 c -0.3,0 -0.5,0 -0.8,0 -0.2,0 -0.4,0 -0.6,0.1 -0.2,0 -0.3,0.1 -0.5,0.2 -0.1,0.1 -0.2,0.2 -0.3,0.4 -0.1,0.2 -0.1,0.4 -0.1,0.6 v 0.6 h -0.7 v 1 h 0.7 v 4.5 z m -6.2,0 h 1.4 v -3.3 c 0,-0.2 0,-0.3 0.1,-0.5 0.1,-0.1 0.1,-0.2 0.2,-0.3 0.1,-0.1 0.2,-0.1 0.3,-0.2 0.1,0 0.2,-0.1 0.4,-0.1 0.1,0 0.1,0 0.2,0 0.1,0 0.1,0 0.2,0 v -1.4 c 0,0 -0.1,0 -0.1,0 0,0 -0.1,0 -0.1,0 -0.3,0 -0.5,0.1 -0.7,0.2 -0.2,0.2 -0.4,0.4 -0.5,0.6 v 0 -0.7 h -1.4 z m -3.6,-3.4 v -0.2 c 0,-0.1 0,-0.3 0,-0.4 0,-0.1 0.1,-0.2 0.1,-0.4 0.1,-0.1 0.1,-0.2 0.2,-0.3 0.1,-0.1 0.2,-0.1 0.4,-0.1 0.1,0 0.3,0 0.4,0.1 0.1,0.1 0.2,0.1 0.2,0.3 0.1,0.1 0.1,0.2 0.1,0.4 0,0.2 0,0.3 0,0.6 z m 2.8,0.8 v -0.3 c 0,-0.4 0,-0.8 -0.1,-1.2 -0.1,-0.3 -0.2,-0.6 -0.3,-0.9 -0.1,-0.2 -0.4,-0.4 -0.6,-0.6 -0.3,-0.1 -0.6,-0.2 -1,-0.2 -0.5,0 -0.9,0.1 -1.1,0.2 -0.3,0.2 -0.5,0.4 -0.7,0.6 -0.2,0.3 -0.3,0.6 -0.3,0.9 -0.1,0.3 -0.1,0.7 -0.1,1.1 0,0.3 0,0.7 0,1 0,0.4 0.1,0.7 0.3,1 0.1,0.3 0.3,0.5 0.6,0.7 0.3,0.2 0.7,0.3 1.2,0.3 0.7,0 1.2,-0.2 1.5,-0.5 0.3,-0.3 0.5,-0.8 0.5,-1.5 h -1.3 c 0,0.3 -0.1,0.6 -0.2,0.8 -0.1,0.2 -0.3,0.3 -0.5,0.3 -0.1,0 -0.2,0 -0.3,-0.1 -0.1,-0.1 -0.2,-0.2 -0.2,-0.3 -0.1,-0.1 -0.1,-0.3 -0.1,-0.4 0,-0.2 0,-0.3 0,-0.5 v -0.4 z m -6.9,-2.9 H 132 v 1 h 0.7 v 3.2 c 0,0.3 0,0.5 0.1,0.7 0,0.2 0.1,0.3 0.2,0.4 0.1,0.1 0.2,0.2 0.4,0.2 0.2,0 0.4,0.1 0.7,0.1 0.2,0 0.3,0 0.5,0 0.1,0 0.3,0 0.5,0 v -1 c 0,0 -0.1,0 -0.2,0 -0.1,0 -0.1,0 -0.2,0 -0.2,0 -0.3,0 -0.4,-0.1 -0.1,-0.1 -0.1,-0.2 -0.1,-0.5 v -3 h 0.8 v -1 h -0.8 v -1.6 h -1.4 v 1.6 z m -5.5,5.5 h 1.4 v -3.7 c 0,-0.6 0.2,-0.9 0.7,-0.9 0.2,0 0.4,0.1 0.5,0.2 0.1,0.1 0.1,0.3 0.1,0.6 v 3.8 h 1.4 v -4.1 c 0,-0.6 -0.1,-1 -0.4,-1.2 -0.2,-0.2 -0.6,-0.4 -1,-0.4 -0.3,0 -0.6,0.1 -0.8,0.2 -0.2,0.1 -0.4,0.3 -0.6,0.6 v 0 -0.6 h -1.3 z m -3.6,-3.4 v -0.2 c 0,-0.1 0,-0.3 0,-0.4 0,-0.1 0.1,-0.2 0.1,-0.4 0.1,-0.1 0.1,-0.2 0.2,-0.3 0.1,-0.1 0.2,-0.1 0.4,-0.1 0.2,0 0.3,0 0.4,0.1 0.1,0.1 0.2,0.1 0.2,0.3 0.1,0.1 0.1,0.2 0.1,0.4 0,0.2 0,0.3 0,0.6 z m 2.8,0.8 v -0.3 c 0,-0.4 0,-0.8 -0.1,-1.2 -0.1,-0.3 -0.2,-0.6 -0.3,-0.9 -0.2,-0.2 -0.4,-0.4 -0.6,-0.6 -0.3,-0.1 -0.6,-0.2 -1,-0.2 -0.5,0 -0.9,0.1 -1.1,0.2 -0.3,0.2 -0.5,0.4 -0.7,0.6 -0.2,0.3 -0.3,0.6 -0.3,0.9 -0.1,0.3 -0.1,0.7 -0.1,1.1 0,0.3 0,0.7 0,1 0,0.4 0.1,0.7 0.3,1 0.1,0.3 0.3,0.5 0.6,0.7 0.3,0.2 0.7,0.3 1.2,0.3 0.7,0 1.2,-0.2 1.5,-0.5 0.3,-0.3 0.5,-0.8 0.5,-1.5 H 125 c 0,0.3 -0.1,0.6 -0.2,0.8 -0.1,0.2 -0.3,0.3 -0.5,0.3 -0.1,0 -0.2,0 -0.3,-0.1 -0.1,-0.1 -0.2,-0.2 -0.2,-0.3 -0.1,-0.1 -0.1,-0.3 -0.1,-0.4 0,-0.2 0,-0.3 0,-0.5 v -0.4 z m -5,-2.3 c 0,-0.3 0,-0.5 -0.1,-0.9 0,-0.3 -0.1,-0.6 -0.3,-0.8 -0.2,-0.3 -0.4,-0.5 -0.7,-0.6 -0.3,-0.2 -0.7,-0.3 -1.2,-0.3 -0.6,0 -1,0.1 -1.3,0.3 -0.3,0.2 -0.6,0.4 -0.8,0.8 -0.2,0.3 -0.3,0.7 -0.3,1.2 -0.1,0.5 -0.1,1 -0.1,1.5 0,0.6 0,1.1 0.1,1.5 0.1,0.5 0.2,0.9 0.3,1.2 0.2,0.3 0.4,0.6 0.8,0.8 0.3,0.2 0.8,0.3 1.3,0.3 0.5,0 0.9,-0.1 1.2,-0.2 0.3,-0.2 0.5,-0.4 0.7,-0.6 0.2,-0.3 0.3,-0.6 0.3,-0.9 0.1,-0.4 0.1,-0.7 0.1,-1.1 H 120 c 0,0.4 0,0.7 -0.1,1 0,0.2 -0.1,0.4 -0.2,0.6 -0.1,0.2 -0.2,0.2 -0.3,0.3 -0.1,0 -0.2,0.1 -0.4,0.1 -0.2,0 -0.3,0 -0.4,-0.1 -0.1,-0.1 -0.2,-0.2 -0.3,-0.4 -0.1,-0.2 -0.1,-0.5 -0.2,-0.8 -0.1,-0.3 -0.1,-0.8 -0.1,-1.3 0,-0.5 0,-1 0,-1.3 0,-0.4 0.1,-0.6 0.1,-0.9 0.1,-0.2 0.2,-0.4 0.3,-0.5 0.1,-0.1 0.3,-0.1 0.5,-0.1 0.3,0 0.6,0.1 0.7,0.4 0.1,0.2 0.2,0.6 0.2,1.2 h 1.6 z"
   id="path12" />
	<path
   fill="#bdce0a"
   d="m 89.5,77 v 1.2 c 0,2.8 0.7,4.9 2.2,6.4 1.5,1.5 3.9,2.3 7.3,2.3 3.3,0 5.8,-0.7 7.7,-2.2 1.8,-1.5 2.8,-3.8 2.8,-7 0,-0.9 -0.1,-1.8 -0.3,-2.5 -0.2,-0.7 -0.5,-1.4 -0.9,-2.1 -0.4,-0.6 -1,-1.2 -1.8,-1.8 -0.7,-0.5 -1.7,-1.1 -2.8,-1.6 l -4.7,-2 c -1.3,-0.5 -2.1,-1.1 -2.5,-1.7 -0.4,-0.6 -0.6,-1.4 -0.6,-2.3 0,-0.4 0,-0.9 0.1,-1.3 0.1,-0.4 0.3,-0.8 0.5,-1.1 0.3,-0.3 0.6,-0.6 1.1,-0.8 0.4,-0.2 1,-0.3 1.7,-0.3 1.2,0 2,0.4 2.5,1.2 0.5,0.8 0.8,1.9 0.8,3.3 h 5.8 v -0.8 c 0,-1.4 -0.2,-2.7 -0.7,-3.7 -0.5,-1 -1.1,-1.9 -1.9,-2.5 -0.8,-0.7 -1.8,-1.1 -2.9,-1.4 -1.1,-0.3 -2.4,-0.4 -3.7,-0.4 -2.9,0 -5.2,0.7 -6.8,2.2 -1.7,1.5 -2.5,3.7 -2.5,6.6 0,1.2 0.2,2.3 0.5,3.3 0.3,0.9 0.8,1.8 1.4,2.5 0.7,0.7 1.5,1.3 2.5,1.9 1,0.5 2.1,1 3.5,1.5 1,0.3 1.9,0.7 2.5,1 0.7,0.3 1.2,0.7 1.7,1.1 0.4,0.4 0.7,0.8 0.9,1.3 0.2,0.5 0.3,1.1 0.3,1.7 0,1.3 -0.4,2.2 -1.1,2.8 -0.7,0.6 -1.6,0.9 -2.5,0.9 -0.8,0 -1.5,-0.1 -2,-0.3 -0.5,-0.2 -0.9,-0.5 -1.2,-0.9 -0.3,-0.4 -0.5,-0.9 -0.6,-1.4 -0.1,-0.6 -0.2,-1.2 -0.2,-1.9 V 77 Z"
   id="path13" />
	<path
   fill="#016266"
   d="m 44.6,66.5 c 0,-1.1 -0.1,-2.3 -0.2,-3.5 -0.2,-1.2 -0.5,-2.4 -1.2,-3.5 -0.6,-1.1 -1.5,-2 -2.8,-2.7 -1.2,-0.7 -2.9,-1 -5.1,-1 -2.3,0 -4.1,0.4 -5.4,1.2 -1.3,0.8 -2.4,1.8 -3.1,3.2 -0.7,1.4 -1.2,3 -1.4,4.9 -0.2,1.9 -0.3,4 -0.3,6.3 0,2.3 0.1,4.4 0.3,6.3 0.2,1.9 0.7,3.6 1.4,4.9 0.7,1.4 1.7,2.4 3.1,3.2 1.3,0.8 3.2,1.2 5.4,1.2 2,0 3.6,-0.3 4.8,-1 1.2,-0.6 2.2,-1.5 2.9,-2.6 0.7,-1.1 1.2,-2.4 1.4,-3.8 0.3,-1.5 0.4,-3 0.4,-4.6 h -6 c 0,1.6 -0.1,2.9 -0.3,3.9 -0.2,1 -0.5,1.8 -0.8,2.3 -0.3,0.5 -0.7,0.9 -1.2,1.1 -0.5,0.2 -1,0.3 -1.5,0.3 -0.6,0 -1.2,-0.1 -1.7,-0.4 -0.5,-0.3 -0.9,-0.8 -1.2,-1.6 -0.3,-0.8 -0.6,-1.9 -0.7,-3.3 -0.2,-1.4 -0.2,-3.2 -0.2,-5.5 0,-2.1 0.1,-3.9 0.2,-5.4 0.1,-1.5 0.3,-2.7 0.6,-3.6 0.3,-0.9 0.7,-1.6 1.2,-2 0.5,-0.4 1.1,-0.6 1.9,-0.6 1.4,0 2.3,0.5 2.8,1.5 0.5,1 0.8,2.6 0.8,4.8 z"
   id="path14" />
	<path
   fill="#0098a1"
   d="m 67.2,66.5 c 0,-1.1 -0.1,-2.3 -0.2,-3.5 -0.2,-1.2 -0.5,-2.4 -1.2,-3.5 -0.6,-1.1 -1.5,-2 -2.8,-2.7 -1.2,-0.7 -2.9,-1 -5.1,-1 -2.3,0 -4.1,0.4 -5.4,1.2 -1.3,0.8 -2.4,1.8 -3.1,3.2 -0.7,1.4 -1.2,3 -1.4,4.9 -0.2,1.9 -0.3,4 -0.3,6.3 0,2.3 0.1,4.4 0.3,6.3 0.2,1.9 0.7,3.6 1.4,4.9 0.7,1.4 1.7,2.4 3.1,3.2 1.3,0.8 3.2,1.2 5.4,1.2 2,0 3.6,-0.3 4.8,-1 1.2,-0.6 2.2,-1.5 2.9,-2.6 0.7,-1.1 1.2,-2.4 1.4,-3.8 0.3,-1.5 0.4,-3 0.4,-4.6 h -6 c 0,1.6 -0.1,2.9 -0.3,3.9 -0.2,1 -0.5,1.8 -0.8,2.3 -0.3,0.5 -0.7,0.9 -1.2,1.1 -0.5,0.2 -1,0.3 -1.5,0.3 -0.6,0 -1.2,-0.1 -1.7,-0.4 -0.5,-0.3 -0.9,-0.8 -1.2,-1.6 -0.3,-0.8 -0.6,-1.9 -0.7,-3.3 -0.2,-1.4 -0.2,-3.2 -0.2,-5.5 0,-2.1 0.1,-3.9 0.2,-5.4 0.1,-1.5 0.3,-2.7 0.6,-3.6 0.3,-0.9 0.7,-1.6 1.2,-2 0.5,-0.4 1.1,-0.6 1.9,-0.6 1.4,0 2.3,0.5 2.8,1.5 0.5,1 0.8,2.6 0.8,4.8 z"
   id="path15" />
	<polygon
   fill="#58ac32"
   points="76.7,81.4 76.7,56.4 70.7,56.4 70.7,86.4 87.4,86.4 87.4,81.4 "
   id="polygon15" />
</g>
</svg>
